<svg xmlns="http://www.w3.org/2000/svg" xmlns:xlink="http://www.w3.org/1999/xlink" width="40" zoomAndPan="magnify" viewBox="0 0 30 30.000001" height="40" preserveAspectRatio="xMidYMid meet" version="1.0"><defs><clipPath id="6eb734b452"><path d="M 0.484375 10 L 13 10 L 13 19 L 0.484375 19 Z M 0.484375 10 " clip-rule="nonzero"/></clipPath><clipPath id="cdde132eda"><path d="M 0.484375 10 L 13 10 L 13 20 L 0.484375 20 Z M 0.484375 10 " clip-rule="nonzero"/></clipPath><clipPath id="43209af2a1"><path d="M 16 26 L 18 26 L 18 28.542969 L 16 28.542969 Z M 16 26 " clip-rule="nonzero"/></clipPath><clipPath id="8897193edd"><path d="M 18 26 L 20 26 L 20 28.542969 L 18 28.542969 Z M 18 26 " clip-rule="nonzero"/></clipPath><clipPath id="79fe8452ea"><path d="M 18 26 L 21 26 L 21 28.542969 L 18 28.542969 Z M 18 26 " clip-rule="nonzero"/></clipPath></defs><path fill="#1d1d1b" d="M 16.972656 27.390625 C 16.878906 27.390625 16.789062 27.335938 16.746094 27.246094 C 16.679688 27.109375 15.144531 23.902344 14.792969 22.796875 C 14.507812 21.894531 13.875 17.261719 13.847656 17.0625 C 13.832031 16.925781 13.925781 16.800781 14.066406 16.78125 C 14.203125 16.761719 14.328125 16.859375 14.347656 16.996094 C 14.355469 17.042969 15 21.785156 15.273438 22.644531 C 15.613281 23.714844 17.183594 26.996094 17.199219 27.03125 C 17.261719 27.15625 17.207031 27.304688 17.082031 27.367188 C 17.046875 27.382812 17.011719 27.390625 16.972656 27.390625 " fill-opacity="1" fill-rule="nonzero"/><path fill="#1d1d1b" d="M 8.992188 21.113281 C 8.929688 21.113281 8.871094 21.09375 8.824219 21.050781 C 8.71875 20.957031 8.710938 20.796875 8.804688 20.695312 C 8.867188 20.625 10.324219 19.015625 10.660156 18.667969 C 10.847656 18.472656 11.460938 16.800781 11.941406 15.292969 C 11.984375 15.160156 12.125 15.089844 12.257812 15.132812 C 12.390625 15.171875 12.464844 15.316406 12.421875 15.449219 C 12.183594 16.195312 11.375 18.65625 11.019531 19.019531 C 10.691406 19.359375 9.191406 21.015625 9.179688 21.03125 C 9.128906 21.085938 9.058594 21.113281 8.992188 21.113281 " fill-opacity="1" fill-rule="nonzero"/><path fill="#575756" d="M 8.320312 20.722656 C 8.574219 21.023438 9.699219 21.34375 9.960938 19.8125 C 9.960938 19.8125 8.046875 20.398438 8.320312 20.722656 " fill-opacity="1" fill-rule="nonzero"/><path fill="#1d1d1b" d="M 8.953125 21.097656 C 8.621094 21.097656 8.34375 20.945312 8.226562 20.800781 C 8.171875 20.738281 8.15625 20.664062 8.179688 20.589844 C 8.289062 20.222656 9.542969 19.8125 9.921875 19.695312 L 10.113281 19.636719 L 10.082031 19.832031 C 9.886719 20.972656 9.226562 21.097656 8.953125 21.097656 Z M 8.417969 20.648438 C 8.507812 20.75 8.722656 20.851562 8.953125 20.851562 C 9.359375 20.851562 9.65625 20.546875 9.796875 19.992188 C 9.085938 20.226562 8.476562 20.515625 8.417969 20.648438 " fill-opacity="1" fill-rule="nonzero"/><path fill="#b9e2f6" d="M 14.0625 13.75 C 14.0625 13.75 7.988281 3.226562 12.316406 1.550781 C 15.257812 0.410156 15.652344 12.015625 14.0625 13.75 " fill-opacity="1" fill-rule="nonzero"/><path fill="#95d4f3" d="M 13.628906 13 C 13.628906 13 10.257812 5.058594 12.375 4.253906 C 14.492188 3.453125 14.765625 11.757812 13.628906 13 " fill-opacity="1" fill-rule="nonzero"/><path fill="#1d1d1b" d="M 14.039062 13.957031 L 13.957031 13.808594 C 13.945312 13.792969 12.871094 11.921875 11.957031 9.664062 C 10.722656 6.613281 10.347656 4.34375 10.851562 2.917969 C 11.105469 2.199219 11.582031 1.703125 12.269531 1.433594 C 12.417969 1.378906 12.566406 1.347656 12.710938 1.347656 C 13.285156 1.347656 13.78125 1.804688 14.175781 2.703125 C 14.761719 4.035156 15.117188 6.386719 15.105469 8.84375 C 15.097656 10.761719 14.84375 13.078125 14.15625 13.832031 Z M 12.710938 1.59375 C 12.597656 1.59375 12.480469 1.617188 12.359375 1.664062 C 11.742188 1.902344 11.3125 2.351562 11.085938 3 C 10.023438 6.007812 13.472656 12.429688 14.082031 13.527344 C 15.089844 12.015625 15.210938 5.660156 13.949219 2.804688 C 13.597656 2 13.179688 1.59375 12.710938 1.59375 " fill-opacity="1" fill-rule="nonzero"/><path fill="#b9e2f6" d="M 13.871094 12.777344 C 13.871094 12.777344 16.414062 0.238281 20.882812 1.996094 C 23.925781 3.195312 16.296875 12.574219 13.871094 12.777344 " fill-opacity="1" fill-rule="nonzero"/><path fill="#95d4f3" d="M 14.046875 12.417969 C 14.046875 12.417969 15.984375 2.851562 19.398438 4.195312 C 21.71875 5.109375 15.898438 12.261719 14.046875 12.417969 " fill-opacity="1" fill-rule="nonzero"/><path fill="#1d1d1b" d="M 13.71875 12.914062 L 13.75 12.753906 C 13.84375 12.304688 16.035156 1.707031 20.03125 1.707031 C 20.328125 1.707031 20.628906 1.765625 20.929688 1.882812 C 21.359375 2.050781 21.839844 2.476562 21.683594 3.546875 C 21.441406 5.195312 19.816406 7.601562 18.375 9.300781 C 17.019531 10.902344 15.027344 12.804688 13.882812 12.902344 Z M 20.03125 1.953125 C 16.503906 1.953125 14.335938 11.226562 14.03125 12.628906 C 14.941406 12.40625 16.574219 11.046875 18.1875 9.140625 C 20 7.003906 21.242188 4.847656 21.441406 3.507812 C 21.546875 2.769531 21.351562 2.3125 20.839844 2.113281 C 20.570312 2.003906 20.296875 1.953125 20.03125 1.953125 " fill-opacity="1" fill-rule="nonzero"/><path fill="#b9e2f6" d="M 14.195312 12.871094 C 14.195312 12.871094 17.171875 10.648438 20.261719 9.488281 C 28.113281 6.527344 27.242188 12.183594 23.210938 13.148438 C 21.121094 13.648438 18.015625 13.566406 14.195312 12.871094 " fill-opacity="1" fill-rule="nonzero"/><path fill="#95d4f3" d="M 14.195312 12.871094 C 14.195312 12.871094 16.269531 11.585938 19.324219 10.335938 C 24.773438 8.105469 26.230469 11.964844 22.199219 12.929688 C 20.109375 13.429688 18.015625 13.566406 14.195312 12.871094 " fill-opacity="1" fill-rule="nonzero"/><path fill="#1d1d1b" d="M 20.015625 13.589844 C 18.320312 13.589844 16.355469 13.390625 14.171875 12.992188 L 13.894531 12.941406 L 14.121094 12.773438 C 14.152344 12.75 17.148438 10.527344 20.214844 9.371094 C 21.722656 8.804688 23.003906 8.515625 24.023438 8.515625 C 25.957031 8.515625 26.285156 9.535156 26.339844 9.972656 C 26.480469 11.171875 25.269531 12.78125 23.238281 13.265625 C 22.339844 13.480469 21.257812 13.589844 20.015625 13.589844 Z M 14.5 12.800781 C 16.554688 13.160156 18.410156 13.34375 20.015625 13.34375 C 21.238281 13.34375 22.304688 13.238281 23.183594 13.027344 C 24.683594 12.667969 26.25 11.335938 26.09375 10.003906 C 26 9.214844 25.246094 8.761719 24.023438 8.761719 C 23.035156 8.761719 21.785156 9.042969 20.304688 9.601562 C 17.757812 10.558594 15.261719 12.261719 14.5 12.800781 " fill-opacity="1" fill-rule="nonzero"/><path fill="#868686" d="M 10.066406 13.839844 C 10.066406 13.839844 20.578125 25.015625 24.648438 24.679688 C 29.515625 24.277344 19.007812 12.191406 11.453125 12.210938 C 4.503906 12.226562 10.066406 13.839844 10.066406 13.839844 " fill-opacity="1" fill-rule="nonzero"/><path fill="#6f6f6e" d="M 10.066406 13.839844 C 10.066406 13.839844 20.851562 25.726562 25.308594 24.507812 C 28.382812 23.664062 18.734375 12.625 11.179688 12.644531 C 4.226562 12.664062 10.066406 13.839844 10.066406 13.839844 " fill-opacity="1" fill-rule="nonzero"/><path fill="#575756" d="M 10.066406 13.839844 C 10.066406 13.839844 20.410156 25.152344 25.160156 24.652344 C 27.0625 24.453125 16.3125 13.332031 11.484375 13.332031 C 4.53125 13.332031 10.066406 13.839844 10.066406 13.839844 " fill-opacity="1" fill-rule="nonzero"/><path fill="#1d1d1b" d="M 24.519531 24.804688 C 22.734375 24.804688 19.742188 22.972656 15.625 19.351562 C 12.726562 16.804688 10.261719 14.226562 10 13.949219 C 9.296875 13.742188 7.765625 13.234375 7.835938 12.714844 C 7.882812 12.410156 8.34375 12.09375 11.453125 12.085938 L 11.472656 12.085938 C 17.789062 12.085938 25.925781 20.355469 26.015625 23.488281 C 26.039062 24.285156 25.554688 24.75 24.65625 24.800781 C 24.613281 24.804688 24.566406 24.804688 24.519531 24.804688 Z M 11.472656 12.332031 L 11.453125 12.332031 C 8.300781 12.339844 8.089844 12.683594 8.082031 12.75 C 8.054688 12.949219 8.996094 13.402344 10.097656 13.722656 L 10.132812 13.730469 L 10.15625 13.753906 C 10.257812 13.863281 20.394531 24.558594 24.519531 24.558594 C 24.558594 24.558594 24.601562 24.558594 24.644531 24.554688 C 25.417969 24.511719 25.789062 24.164062 25.769531 23.496094 C 25.726562 21.980469 23.71875 19.214844 20.886719 16.777344 C 17.609375 13.953125 14.179688 12.332031 11.472656 12.332031 " fill-opacity="1" fill-rule="nonzero"/><path fill="#1d1d1b" d="M 11.546875 22.71875 C 11.511719 22.71875 11.476562 22.710938 11.445312 22.695312 C 11.316406 22.640625 11.257812 22.492188 11.316406 22.363281 C 11.359375 22.261719 12.441406 19.804688 12.65625 19.371094 C 12.773438 19.128906 12.84375 17.347656 12.84375 15.769531 C 12.84375 15.628906 12.957031 15.515625 13.097656 15.515625 C 13.234375 15.515625 13.347656 15.628906 13.347656 15.765625 C 13.347656 16.550781 13.332031 19.144531 13.105469 19.597656 C 12.894531 20.019531 11.785156 22.542969 11.773438 22.566406 C 11.734375 22.660156 11.640625 22.71875 11.546875 22.71875 " fill-opacity="1" fill-rule="nonzero"/><path fill="#1d1d1b" d="M 19.582031 27.054688 C 19.503906 27.054688 19.425781 27.019531 19.375 26.945312 C 19.292969 26.824219 17.304688 23.914062 16.742188 22.90625 C 16.28125 22.078125 15.191406 18.527344 15.144531 18.378906 C 15.105469 18.246094 15.179688 18.105469 15.3125 18.066406 C 15.445312 18.023438 15.585938 18.097656 15.625 18.230469 C 15.636719 18.269531 16.746094 21.878906 17.183594 22.664062 C 17.730469 23.652344 19.769531 26.632812 19.792969 26.664062 C 19.871094 26.777344 19.839844 26.933594 19.726562 27.011719 C 19.683594 27.042969 19.632812 27.054688 19.582031 27.054688 " fill-opacity="1" fill-rule="nonzero"/><g clip-path="url(#6eb734b452)"><path fill="#6f6f6e" d="M 7.265625 10.558594 L 11.933594 10.558594 C 11.933594 10.558594 15.320312 15.636719 7.265625 16.636719 C 6.542969 16.726562 2.660156 18.859375 0.578125 18.859375 C 0.578125 18.859375 8.292969 17.453125 6.542969 12.851562 C 5.457031 10 7.265625 10.558594 7.265625 10.558594 " fill-opacity="1" fill-rule="nonzero"/><path fill="#575756" d="M 7.265625 10.558594 L 11.046875 10.558594 C 11.046875 10.558594 15.320312 15.636719 7.265625 16.636719 C 6.542969 16.726562 2.660156 18.859375 0.578125 18.859375 C 0.578125 18.859375 7.265625 17.65625 6.738281 12.851562 C 6.40625 9.820312 7.265625 10.558594 7.265625 10.558594 " fill-opacity="1" fill-rule="nonzero"/></g><g clip-path="url(#cdde132eda)"><path fill="#1d1d1b" d="M 0.625 19.226562 C 0.570312 19.226562 0.523438 19.191406 0.507812 19.136719 C 0.488281 19.074219 0.527344 19.007812 0.589844 18.988281 C 0.609375 18.980469 2.710938 18.324219 4.925781 16.835938 C 6.203125 15.980469 6.71875 14.609375 6.421875 12.871094 C 6.21875 11.683594 6.261719 10.90625 6.550781 10.566406 C 6.660156 10.433594 6.808594 10.363281 6.980469 10.363281 C 7.121094 10.363281 7.242188 10.410156 7.296875 10.4375 L 11.933594 10.4375 C 11.976562 10.4375 12.015625 10.457031 12.035156 10.492188 C 12.089844 10.570312 13.285156 12.402344 12.496094 14.125 C 11.855469 15.523438 10.101562 16.410156 7.28125 16.761719 C 6.976562 16.796875 6.015625 17.195312 4.902344 17.652344 C 3.511719 18.226562 1.785156 18.9375 0.65625 19.222656 C 0.644531 19.226562 0.636719 19.226562 0.625 19.226562 Z M 6.980469 10.609375 C 6.882812 10.609375 6.804688 10.648438 6.738281 10.722656 C 6.574219 10.917969 6.425781 11.445312 6.664062 12.828125 C 6.980469 14.671875 6.425781 16.128906 5.0625 17.042969 C 4.578125 17.367188 4.097656 17.652344 3.644531 17.902344 C 4.042969 17.742188 4.4375 17.578125 4.808594 17.425781 C 5.984375 16.941406 6.914062 16.558594 7.253906 16.515625 C 9.980469 16.175781 11.671875 15.335938 12.273438 14.019531 C 12.933594 12.578125 12.054688 10.996094 11.867188 10.683594 L 7.265625 10.683594 C 7.246094 10.683594 7.222656 10.675781 7.207031 10.667969 C 7.207031 10.667969 7.101562 10.609375 6.980469 10.609375 " fill-opacity="1" fill-rule="nonzero"/></g><path fill="#1d1d1b" d="M 9.035156 16.425781 L 8.867188 16.238281 C 9.015625 16.109375 9.402344 15.707031 9.445312 15.445312 L 9.695312 15.484375 C 9.628906 15.882812 9.097656 16.371094 9.035156 16.425781 " fill-opacity="1" fill-rule="nonzero"/><path fill="#1d1d1b" d="M 9.078125 15.550781 C 9.632812 15.464844 10.066406 15.550781 10.066406 15.550781 C 9.570312 15.144531 9.070312 15.554688 9.078125 15.550781 " fill-opacity="1" fill-rule="nonzero"/><path fill="#ffffff" d="M 8.148438 12.246094 C 8.011719 13.492188 7.183594 14.425781 6.292969 14.328125 C 5.40625 14.230469 4.796875 13.140625 4.933594 11.890625 C 5.070312 10.644531 5.902344 9.714844 6.789062 9.8125 C 7.679688 9.910156 8.289062 11 8.148438 12.246094 " fill-opacity="1" fill-rule="nonzero"/><path fill="#1d1d1b" d="M 7.757812 12.210938 C 7.71875 12.589844 7.460938 12.875 7.191406 12.847656 C 6.917969 12.816406 6.734375 12.484375 6.773438 12.101562 C 6.816406 11.71875 7.070312 11.433594 7.34375 11.464844 C 7.613281 11.496094 7.800781 11.828125 7.757812 12.210938 " fill-opacity="1" fill-rule="nonzero"/><path fill="#1d1d1b" d="M 6.421875 14.457031 C 6.375 14.457031 6.328125 14.453125 6.28125 14.449219 C 5.324219 14.34375 4.667969 13.191406 4.8125 11.878906 C 4.949219 10.625 5.746094 9.679688 6.664062 9.679688 C 6.710938 9.679688 6.757812 9.683594 6.804688 9.6875 C 7.273438 9.738281 7.6875 10.042969 7.960938 10.535156 C 8.230469 11.019531 8.34375 11.632812 8.273438 12.257812 C 8.136719 13.511719 7.339844 14.457031 6.421875 14.457031 Z M 6.664062 9.925781 C 5.882812 9.925781 5.179688 10.796875 5.054688 11.90625 C 4.925781 13.082031 5.488281 14.113281 6.308594 14.203125 C 6.34375 14.207031 6.382812 14.210938 6.421875 14.210938 C 7.199219 14.210938 7.90625 13.34375 8.027344 12.230469 C 8.089844 11.65625 7.992188 11.09375 7.746094 10.65625 C 7.511719 10.234375 7.164062 9.976562 6.777344 9.933594 C 6.738281 9.929688 6.699219 9.925781 6.664062 9.925781 " fill-opacity="1" fill-rule="nonzero"/><path fill="#ffffff" d="M 11.992188 12.09375 C 11.738281 13.753906 10.574219 14.957031 9.394531 14.777344 C 8.210938 14.597656 7.453125 13.105469 7.703125 11.445312 C 7.957031 9.78125 9.121094 8.582031 10.300781 8.761719 C 11.484375 8.9375 12.242188 10.429688 11.992188 12.09375 " fill-opacity="1" fill-rule="nonzero"/><path fill="#1d1d1b" d="M 11.46875 12.023438 C 11.390625 12.53125 11.035156 12.898438 10.675781 12.84375 C 10.3125 12.789062 10.082031 12.332031 10.15625 11.824219 C 10.234375 11.316406 10.589844 10.949219 10.953125 11.003906 C 11.3125 11.058594 11.546875 11.515625 11.46875 12.023438 " fill-opacity="1" fill-rule="nonzero"/><path fill="#1d1d1b" d="M 9.628906 14.917969 C 9.542969 14.917969 9.457031 14.910156 9.375 14.898438 C 8.761719 14.804688 8.238281 14.386719 7.902344 13.722656 C 7.570312 13.070312 7.457031 12.253906 7.582031 11.425781 C 7.824219 9.824219 8.894531 8.621094 10.066406 8.621094 C 10.152344 8.621094 10.238281 8.625 10.320312 8.636719 C 11.570312 8.828125 12.375 10.382812 12.113281 12.109375 C 11.871094 13.710938 10.800781 14.917969 9.628906 14.917969 Z M 10.066406 8.867188 C 9.015625 8.867188 8.050781 9.980469 7.828125 11.460938 C 7.707031 12.242188 7.8125 13.003906 8.121094 13.609375 C 8.421875 14.203125 8.878906 14.574219 9.410156 14.65625 C 9.484375 14.664062 9.554688 14.671875 9.628906 14.671875 C 10.679688 14.671875 11.644531 13.554688 11.867188 12.074219 C 12.109375 10.480469 11.398438 9.050781 10.285156 8.882812 C 10.210938 8.871094 10.140625 8.867188 10.066406 8.867188 " fill-opacity="1" fill-rule="nonzero"/><path fill="#575756" d="M 10.359375 23.535156 C 10.6875 23.75 11.859375 23.730469 11.667969 22.191406 C 11.667969 22.191406 10.007812 23.300781 10.359375 23.535156 " fill-opacity="1" fill-rule="nonzero"/><path fill="#1d1d1b" d="M 10.761719 23.757812 C 10.582031 23.757812 10.40625 23.710938 10.292969 23.636719 C 10.226562 23.59375 10.1875 23.523438 10.1875 23.445312 C 10.1875 23.0625 11.269531 22.308594 11.601562 22.089844 L 11.765625 21.976562 L 11.789062 22.175781 C 11.859375 22.726562 11.769531 23.148438 11.519531 23.425781 C 11.269531 23.714844 10.933594 23.757812 10.761719 23.757812 Z M 10.433594 23.4375 C 10.492188 23.472656 10.609375 23.511719 10.761719 23.511719 C 10.894531 23.511719 11.148438 23.476562 11.335938 23.265625 C 11.503906 23.078125 11.578125 22.785156 11.5625 22.410156 C 10.953125 22.839844 10.449219 23.292969 10.433594 23.4375 " fill-opacity="1" fill-rule="nonzero"/><g clip-path="url(#43209af2a1)"><path fill="#575756" d="M 16.367188 28.421875 C 16.761719 28.433594 17.75 27.8125 16.789062 26.59375 C 16.789062 26.59375 15.945312 28.40625 16.367188 28.421875 " fill-opacity="1" fill-rule="nonzero"/><path fill="#1d1d1b" d="M 16.382812 28.542969 L 16.363281 28.542969 C 16.285156 28.542969 16.214844 28.503906 16.175781 28.433594 C 15.976562 28.109375 16.507812 26.902344 16.675781 26.542969 L 16.761719 26.359375 L 16.886719 26.515625 C 17.421875 27.195312 17.367188 27.683594 17.226562 27.972656 C 17.035156 28.367188 16.617188 28.542969 16.382812 28.542969 Z M 16.382812 28.296875 C 16.554688 28.296875 16.867188 28.148438 17.003906 27.863281 C 17.140625 27.578125 17.074219 27.226562 16.8125 26.835938 C 16.511719 27.519531 16.320312 28.167969 16.382812 28.296875 " fill-opacity="1" fill-rule="nonzero"/></g><g clip-path="url(#8897193edd)"><path fill="#575756" d="M 19.082031 28.421875 C 19.472656 28.433594 20.464844 27.8125 19.5 26.59375 C 19.5 26.59375 18.660156 28.40625 19.082031 28.421875 " fill-opacity="1" fill-rule="nonzero"/></g><g clip-path="url(#79fe8452ea)"><path fill="#1d1d1b" d="M 19.09375 28.542969 L 19.078125 28.542969 C 18.996094 28.542969 18.929688 28.503906 18.886719 28.433594 C 18.6875 28.109375 19.222656 26.902344 19.390625 26.542969 L 19.472656 26.359375 L 19.597656 26.515625 C 20.132812 27.195312 20.078125 27.683594 19.9375 27.972656 C 19.746094 28.367188 19.328125 28.542969 19.09375 28.542969 Z M 19.09375 28.296875 C 19.265625 28.296875 19.578125 28.148438 19.714844 27.863281 C 19.855469 27.578125 19.789062 27.226562 19.527344 26.835938 C 19.226562 27.519531 19.03125 28.167969 19.09375 28.296875 " fill-opacity="1" fill-rule="nonzero"/></g><path fill="#1d1d1b" d="M 17.125 14.023438 C 17.050781 13.980469 16.976562 13.941406 16.902344 13.898438 C 16.835938 14.246094 16.707031 14.71875 16.464844 15.214844 C 15.910156 16.339844 15.019531 17.117188 13.804688 17.542969 C 13.726562 17.570312 13.925781 17.761719 14.003906 17.730469 C 16.21875 16.894531 16.910156 15.035156 17.125 14.023438 " fill-opacity="1" fill-rule="nonzero"/><path fill="#1d1d1b" d="M 19.390625 15.464844 C 19.3125 15.410156 19.234375 15.355469 19.15625 15.304688 C 19.140625 15.59375 19.0625 16.296875 18.71875 17.066406 C 18.191406 18.246094 17.28125 19.074219 16.019531 19.53125 C 15.898438 19.578125 16.109375 19.761719 16.230469 19.714844 C 18.835938 18.695312 19.304688 16.316406 19.390625 15.464844 " fill-opacity="1" fill-rule="nonzero"/><path fill="#1d1d1b" d="M 21.5625 17.160156 C 21.503906 17.109375 21.449219 17.0625 21.390625 17.015625 L 21.320312 17.015625 C 21.320312 17.023438 21.328125 17.914062 20.878906 18.917969 C 20.347656 20.105469 19.433594 20.933594 18.164062 21.390625 C 18.164062 21.390625 18.300781 21.605469 18.460938 21.542969 C 21.191406 20.425781 21.523438 17.808594 21.5625 17.160156 " fill-opacity="1" fill-rule="nonzero"/><path fill="#1d1d1b" d="M 23.40625 19.078125 C 23.371094 19.425781 23.269531 20.023438 22.984375 20.664062 C 22.492188 21.761719 21.667969 22.554688 20.539062 23.03125 C 20.398438 23.089844 20.648438 23.253906 20.773438 23.195312 C 22.917969 22.21875 23.476562 20.285156 23.621094 19.328125 C 23.550781 19.246094 23.480469 19.160156 23.40625 19.078125 " fill-opacity="1" fill-rule="nonzero"/></svg>